<?xml version="1.0" encoding="UTF-8" standalone="no"?>
<!-- Created with Inkscape (http://www.inkscape.org/) -->

<svg
   width="828.68719"
   height="271.15927"
   viewBox="0 0 219.25681 71.744224"
   version="1.1"
   id="svg1"
   xml:space="preserve"
   sodipodi:docname="zanohub_network.svg"
   inkscape:version="1.3.2 (091e20ef0f, 2023-11-25, custom)"
   xmlns:inkscape="http://www.inkscape.org/namespaces/inkscape"
   xmlns:sodipodi="http://sodipodi.sourceforge.net/DTD/sodipodi-0.dtd"
   xmlns:xlink="http://www.w3.org/1999/xlink"
   xmlns="http://www.w3.org/2000/svg"
   xmlns:svg="http://www.w3.org/2000/svg"><sodipodi:namedview
     id="namedview1"
     pagecolor="#ffffff"
     bordercolor="#000000"
     borderopacity="0.25"
     inkscape:showpageshadow="2"
     inkscape:pageopacity="0.0"
     inkscape:pagecheckerboard="0"
     inkscape:deskcolor="#d1d1d1"
     inkscape:zoom="1.4782417"
     inkscape:cx="414.34361"
     inkscape:cy="135.29587"
     inkscape:window-width="1920"
     inkscape:window-height="1008"
     inkscape:window-x="0"
     inkscape:window-y="0"
     inkscape:window-maximized="1"
     inkscape:current-layer="svg1" /><defs
     id="defs1"><linearGradient
       id="linearGradient1"><stop
         style="stop-color:#16ccd7;stop-opacity:1"
         offset="0"
         id="stop1" /><stop
         style="stop-color:#2555fb;stop-opacity:1"
         offset="1"
         id="stop2" /></linearGradient><style
       id="style1">.cls-1{fill:#0c0c3a;}</style><linearGradient
       xlink:href="#linearGradient1"
       id="linearGradient2"
       x1="200.03105"
       y1="113.92473"
       x2="198.98653"
       y2="161.77991"
       gradientUnits="userSpaceOnUse"
       gradientTransform="matrix(1.3134093,0,0,1.3134093,-93.080496,-164.79729)" /><style
       id="style1-5">.cls-1{fill:#0c0c3a;}</style></defs><g
     id="g2"
     transform="matrix(1.7376104,0,0,1.7376104,-164.26692,-225.38946)"
     style="fill:#ffffff"><path
       class="cls-1"
       d="m 110.79735,150.16427 v 2.46063 a 0.63764583,0.63764583 0 0 1 -0.63765,0.63764 H 96.441056 a 2.0716875,2.0716875 0 0 1 -1.645709,-0.89958 v 0 a 1.8838333,1.8838333 0 0 1 0.05821,-2.00025 c 0.01852,-0.0238 0.0344,-0.0503 0.05292,-0.0714 l 10.371673,-14.36158 h -9.305402 a 0.64029166,0.64029166 0 0 1 -0.637646,-0.64029 v -2.45798 a 0.64029166,0.64029166 0 0 1 0.637646,-0.63765 h 13.081002 a 2.0584583,2.0584583 0 0 1 1.6854,0.96044 v 0.0159 a 1.8520833,1.8520833 0 0 1 0.22489,0.89165 1.8758958,1.8758958 0 0 1 -0.32014,1.05833 l -0.0503,0.0714 -10.37431,14.36158 h 9.92981 a 0.63764583,0.63764583 0 0 1 0.64823,0.61119 z"
       id="path1"
       style="fill:#ffffff;stroke-width:0.264583" /><path
       class="cls-1"
       d="m 126.85491,138.25802 h -2.67229 a 0.64029166,0.64029166 0 0 0 -0.64029,0.63765 v 1.75948 a 6.3499999,6.3499999 0 0 0 -5.29167,-2.70405 c -3.94758,0 -6.83419,3.28348 -6.83419,7.80786 0,4.52437 2.88661,7.77875 6.83419,7.77875 a 6.4108541,6.4108541 0 0 0 5.29167,-2.67494 v 1.73831 a 0.66939582,0.66939582 0 0 0 0.66939,0.6694 h 2.64584 a 0.66939582,0.66939582 0 0 0 0.66675,-0.6694 v -13.67631 a 0.66674999,0.66674999 0 0 0 -0.6694,-0.66675 z m -7.31838,11.8454 c -2.34156,0 -4.04283,-1.82298 -4.04283,-4.34446 0,-2.52148 1.70127,-4.37356 4.04283,-4.37356 2.34157,0 4.0058,1.82297 4.0058,4.37356 0,2.55058 -1.66952,4.34446 -4.0058,4.34446 z"
       id="path2"
       style="fill:#ffffff;stroke-width:0.264583" /><path
       class="cls-1"
       d="m 139.44114,137.9511 a 5.3683958,5.3683958 0 0 0 -4.73869,2.58498 v -1.64306 a 0.57679166,0.57679166 0 0 0 -0.63764,-0.63765 h -2.67494 a 0.57414583,0.57414583 0 0 0 -0.635,0.63765 v 13.70806 a 0.59795833,0.59795833 0 0 0 0.635,0.6694 h 2.67494 a 0.60060416,0.60060416 0 0 0 0.63764,-0.6694 v -8.14652 c 0,-2.00554 1.27529,-3.34169 3.18823,-3.34169 1.85208,0 3.10092,1.32292 3.10092,3.34169 v 8.14652 a 0.66674999,0.66674999 0 0 0 0.66675,0.6694 h 2.64583 a 0.66939582,0.66939582 0 0 0 0.6694,-0.6694 v -8.73125 c -0.003,-3.48721 -2.28865,-5.91873 -5.53244,-5.91873 z"
       id="path3"
       style="fill:#ffffff;stroke-width:0.264583" /><path
       class="cls-1"
       d="m 155.31878,137.9511 c -4.70693,0 -8.11212,3.28348 -8.11212,7.80786 0,4.52437 3.40519,7.77875 8.11212,7.77875 4.70694,0 8.08038,-3.25173 8.08038,-7.77875 0,-4.52702 -3.3999,-7.80786 -8.08038,-7.80786 z m -0.0318,12.15232 c -2.33891,0 -4.00579,-1.82298 -4.00579,-4.34446 0,-2.52148 1.66688,-4.37356 4.00579,-4.37356 2.33892,0 4.04284,1.82297 4.04284,4.37356 0,2.55058 -1.67217,4.34446 -4.04284,4.34446 z"
       id="path4"
       style="fill:#ffffff;stroke-width:0.264583" /></g><rect
     style="fill:url(#linearGradient2);fill-opacity:1;stroke-width:9.11957"
     id="rect1"
     width="94.895821"
     height="45.712086"
     x="124.36099"
     y="-9.5458984e-07"
     ry="8.3876839" /><text
     xml:space="preserve"
     style="font-style:normal;font-variant:normal;font-weight:normal;font-stretch:normal;font-size:39.8872px;font-family:'Proxima Nova';-inkscape-font-specification:'Proxima Nova';fill:#2553fc;fill-opacity:1;stroke-width:6.23236"
     x="134.5343"
     y="35.919106"
     id="text1"><tspan
       id="tspan1"
       style="fill:#f9f9f9;stroke-width:6.23236"
       x="134.5343"
       y="35.919106">Hub</tspan></text><text
     xml:space="preserve"
     style="font-size:34.0078px;font-family:'Proxima Nova';-inkscape-font-specification:'Proxima Nova';fill:#ffffff;stroke-width:5.31371"
     x="93.393936"
     y="71.336128"
     id="text2"><tspan
       id="tspan2"
       style="stroke-width:5.31371;fill:#ffffff"
       x="93.393936"
       y="71.336128">Network</tspan></text></svg>
